# xmcd
#
# Track frame offsets: 
#        150
#        19757
#        40004
#        58143
#        76332
#        96283
#        115856
#        132734
#        145948
#        170200
#        185671
#        201994
#
# Disc length: 3061 seconds
#
# Revision: 3
# Processed by: cddbd v1.5.2PL0 Copyright (c) Steve Scherf et al.
# Submitted via: ExactAudioCopy v0.95b4
#
DISCID=b30bf30c
DTITLE=The Klezmatics - Wonder Wheel
DYEAR=2006
DGENRE=Klezmer
TTITLE0=Come When I call You
TTITLE1=Mermaid's Avenue
TTITLE2=Headdy Down
TTITLE3=Gonna Get Through This World
TTITLE4=Pass Away
TTITLE5=Holy Ground
TTITLE6=Goin' Away to Sea
TTITLE7=From Here On In
TTITLE8=Wheel Of Life
TTITLE9=Condorbird
TTITLE10=Orange Blossom Ring
TTITLE11=Heaven
EXTD=
EXTT0=
EXTT1=
EXTT2=
EXTT3=
EXTT4=
EXTT5=
EXTT6=
EXTT7=
EXTT8=
EXTT9=
EXTT10=
EXTT11=
PLAYORDER=
